<svg width="263" height="289" viewBox="0 0 263 289" fill="none" xmlns="http://www.w3.org/2000/svg">
<rect x="97.9082" y="48.6309" width="132.518" height="182.289" rx="25" fill="#E1E4EB"/>
<rect x="44.1533" y="89.9365" width="130.518" height="180.289" rx="24" fill="white" stroke="#8691AB" stroke-width="2" stroke-dasharray="10 10"/>
<path d="M87.0733 68.4512H170.794L207.5 101.425V233.673C207.5 247.48 196.307 258.673 182.5 258.673H87.0732C73.2661 258.673 62.0732 247.48 62.0732 233.673V93.4512C62.0732 79.6441 73.2662 68.4512 87.0733 68.4512Z" fill="#F4F7FE"/>
<path d="M176.859 100.643C168.853 100.643 163.092 92.9528 165.343 85.2697L170.366 68.1225L207.424 100.643L176.859 100.643Z" fill="#0870D8"/>
<path d="M87.5 85.25L76.5 95.75M76.5 85.25L87.5 95.75" stroke="#0870D8" stroke-width="3" stroke-linecap="round" stroke-linejoin="round"/>
<line x1="79.8047" y1="170.351" x2="187.747" y2="170.351" stroke="#D0DFFF" stroke-width="4"/>
<line x1="79.8047" y1="182.482" x2="187.747" y2="182.482" stroke="#D0DFFF" stroke-width="4"/>
<line x1="79.8047" y1="194.614" x2="187.747" y2="194.614" stroke="#D0DFFF" stroke-width="4"/>
<line x1="79.8047" y1="206.746" x2="187.747" y2="206.746" stroke="#D0DFFF" stroke-width="4"/>
<line x1="79.8047" y1="218.878" x2="187.747" y2="218.878" stroke="#D0DFFF" stroke-width="4"/>
<line x1="79.8047" y1="231.01" x2="187.747" y2="231.01" stroke="#D0DFFF" stroke-width="4"/>
<circle cx="111.224" cy="122.268" r="3.42181" fill="#0870D8"/>
<ellipse cx="144.975" cy="122.268" rx="3.57735" ry="3.42181" fill="#0870D8"/>
<path d="M142.895 148.087C143.442 148.087 143.889 147.643 143.854 147.097C143.745 145.393 143.357 143.716 142.702 142.135C141.92 140.248 140.774 138.533 139.33 137.089C137.886 135.644 136.171 134.499 134.284 133.717C132.397 132.936 130.375 132.533 128.332 132.533C126.289 132.533 124.267 132.936 122.38 133.717C120.493 134.499 118.778 135.644 117.334 137.089C115.89 138.533 114.744 140.248 113.962 142.135C113.307 143.716 112.919 145.393 112.81 147.097C112.775 147.643 113.222 148.087 113.769 148.087C114.317 148.087 114.757 147.643 114.797 147.097C114.902 145.653 115.238 144.234 115.793 142.893C116.476 141.247 117.475 139.751 118.735 138.49C119.996 137.23 121.492 136.23 123.138 135.548C124.785 134.866 126.55 134.515 128.332 134.515C130.114 134.515 131.879 134.866 133.526 135.548C135.172 136.23 136.668 137.23 137.929 138.49C139.189 139.751 140.189 141.247 140.871 142.893C141.426 144.234 141.762 145.653 141.867 147.097C141.907 147.643 142.347 148.087 142.895 148.087Z" fill="#0870D8"/>
<rect x="189.131" y="245.966" width="6.02186" height="15.2678" transform="rotate(-41.84 189.131 245.966)" fill="#E1E4EB" stroke="#99A1B7"/>
<mask id="path-16-inside-1_120_762" fill="white">
<path d="M206.673 217.702C206.673 236.123 191.74 251.056 173.32 251.056C154.899 251.056 139.966 236.123 139.966 217.702C139.966 199.282 154.899 184.349 173.32 184.349C191.74 184.349 206.673 199.282 206.673 217.702ZM148.857 217.702C148.857 231.213 159.809 242.165 173.32 242.165C186.83 242.165 197.782 231.213 197.782 217.702C197.782 204.192 186.83 193.24 173.32 193.24C159.809 193.24 148.857 204.192 148.857 217.702Z"/>
</mask>
<path d="M206.673 217.702C206.673 236.123 191.74 251.056 173.32 251.056C154.899 251.056 139.966 236.123 139.966 217.702C139.966 199.282 154.899 184.349 173.32 184.349C191.74 184.349 206.673 199.282 206.673 217.702ZM148.857 217.702C148.857 231.213 159.809 242.165 173.32 242.165C186.83 242.165 197.782 231.213 197.782 217.702C197.782 204.192 186.83 193.24 173.32 193.24C159.809 193.24 148.857 204.192 148.857 217.702Z" fill="#E1E4EB" stroke="#99A1B7" stroke-width="2" mask="url(#path-16-inside-1_120_762)"/>
<path d="M190.237 254.218L201.304 244.392L226.613 272.898C229.326 275.954 229.048 280.631 225.992 283.345C222.936 286.058 218.259 285.78 215.546 282.724L190.237 254.218Z" fill="#E1E4EB" stroke="#99A1B7"/>
<line x1="192.77" y1="256.501" x2="203.271" y2="247.177" stroke="#99A1B7"/>
<line x1="216.079" y1="282.756" x2="226.581" y2="273.432" stroke="#99A1B7"/>
<line x1="200.836" y1="258.224" x2="215.405" y2="274.633" stroke="#99A1B7"/>
<line x1="204.118" y1="255.309" x2="218.687" y2="271.718" stroke="#99A1B7"/>
<path d="M21.1565 24.6728C24.6072 22.2273 28.0478 21.2096 31.4784 21.6195C34.9187 21.9727 37.8027 23.7916 40.1306 27.0764C42.4349 30.328 43.1533 33.5572 42.2857 36.7639C41.3945 39.9374 39.2236 42.7469 35.7729 45.1923L38.2897 49.1656L32.168 53.5039L25.9232 45.2194L28.1628 43.6322C31.0495 41.5866 33.0021 39.6296 34.0207 37.7613C35.0394 35.893 34.8315 33.9469 33.3972 31.923C32.3626 30.4631 31.1083 29.6074 29.6343 29.3561C28.1934 29.0813 26.743 29.4612 25.2831 30.4958C23.7569 31.5774 22.8563 32.8386 22.5815 34.2795C22.3398 35.6968 22.7363 37.1354 23.7709 38.5953L17.2013 43.251C15.7338 41.2506 14.8837 39.1366 14.6509 36.9091C14.4181 34.6816 14.8469 32.5086 15.9374 30.3901C17.061 28.248 18.8007 26.3422 21.1565 24.6728ZM43.6336 63.2473C42.3728 64.1408 41.0572 64.4999 39.6869 64.3246C38.3263 64.0926 37.2345 63.396 36.4115 62.2347C35.5885 61.0734 35.3048 59.829 35.5603 58.5016C35.8254 57.1174 36.5884 55.9786 37.8492 55.0851C39.0769 54.2151 40.371 53.8961 41.7317 54.1281C43.0688 54.3269 44.1488 55.0069 44.9718 56.1682C45.7948 57.3295 46.0903 58.5904 45.8583 59.9511C45.6028 61.2785 44.8612 62.3773 43.6336 63.2473Z" fill="#E1E4EB"/>
<path d="M72.738 7.33191C72.738 10.2766 70.3509 12.6638 67.4061 12.6638C64.4614 12.6638 62.0742 10.2766 62.0742 7.33191C62.0742 4.38718 64.4614 2 67.4061 2C70.3509 2 72.738 4.38718 72.738 7.33191ZM63.4726 7.33191C63.4726 9.50433 65.2337 11.2654 67.4061 11.2654C69.5786 11.2654 71.3396 9.50433 71.3396 7.33191C71.3396 5.15949 69.5786 3.39839 67.4061 3.39839C65.2337 3.39839 63.4726 5.15949 63.4726 7.33191Z" fill="#E1E4EB"/>
<path d="M22.6638 244.391C22.6638 247.335 20.2766 249.722 17.3319 249.722C14.3872 249.722 12 247.335 12 244.391C12 241.446 14.3872 239.059 17.3319 239.059C20.2766 239.059 22.6638 241.446 22.6638 244.391ZM13.3984 244.391C13.3984 246.563 15.1595 248.324 17.3319 248.324C19.5043 248.324 21.2654 246.563 21.2654 244.391C21.2654 242.218 19.5043 240.457 17.3319 240.457C15.1595 240.457 13.3984 242.218 13.3984 244.391Z" fill="#E1E4EB"/>
<path d="M255.414 174.844C255.414 177.788 253.027 180.176 250.082 180.176C247.137 180.176 244.75 177.788 244.75 174.844C244.75 171.899 247.137 169.512 250.082 169.512C253.027 169.512 255.414 171.899 255.414 174.844ZM246.148 174.844C246.148 177.016 247.909 178.777 250.082 178.777C252.254 178.777 254.015 177.016 254.015 174.844C254.015 172.671 252.254 170.91 250.082 170.91C247.909 170.91 246.148 172.671 246.148 174.844Z" fill="#E1E4EB"/>
<path d="M116.46 14.992H113.228V18.304H111.532V14.992H108.3V13.456H111.532V10.144H113.228V13.456H116.46V14.992Z" fill="#E1E4EB"/>
<path d="M27.9037 214.959H24.6717V218.271H22.9757V214.959H19.7437V213.423H22.9757V210.111H24.6717V213.423H27.9037V214.959Z" fill="#E1E4EB"/>
<path d="M260.654 145.412H257.422V148.724H255.726V145.412H252.494V143.876H255.726V140.564H257.422V143.876H260.654V145.412Z" fill="#E1E4EB"/>
</svg>
