<svg xmlns="http://www.w3.org/2000/svg" xmlns:xlink="http://www.w3.org/1999/xlink" viewBox="0 0 891.5 165.4">
<style type="text/css">
	.st0{fill-rule:evenodd;clip-rule:evenodd;fill:#FE5815;}
	.st1{fill:#09357A;}
</style>
<g>
	<g>
		<g>
			<path class="st0" d="M66.6,100.4c-1.1,1.2-4.3,1.7-5.1,3c-1.3,2.1-4.4,6.9-6.8,9.1c-7.7,7.3-24.3,11-32.4,4
				c-0.5,0-0.2,0.3,0.4,2.3c0.6,3.8,3.7,12.7,2.5,15c0.7,2.5,1.5,1.6,2.9,3c1,0.9,1.3,3.4,2.4,4.1c1.2-0.1,2.5-0.2,3.7-0.3
				c0.2,0.7,0.5,1.4,0.7,2.1c1.6-0.1,3.2-0.2,4.8-0.3c0.9,0.2,3.6,1.6,4.4,1.8c1.8-0.1,3.5-0.2,5.3-0.4c4.1,1.1,7.6-0.6,11-2.9
				c1.9-1.3,4-1.1,5.7-2.5c2.5-2.1,5.8-6.2,7.4-9.1c3.8-7,2.5-23.7-0.9-27.9C71.2,100.1,69.5,100.1,66.6,100.4z M98.7,95.8
				c-2.9,2.2-4.1,1.7-5.8,5.1c-0.2,0,0.3,0.5,0.1,0.5c1.7,3.4,5.7,4.8,8.6,7.2c0.9,0.8,3.3,5,4.5,5.3c1.3,1.6,2.2,5.9,3,5.9
				c0.9,1.2-0.1,4.1,0.8,5.2c0.1,5.1-0.6,5.5-1.5,6.4c0,0.4,0.5,1.3,0.5,1.6c0.2,0.2,2.3,1.7,3.2,1.5c2.8,0.1,14.1,9,15.1,10.7
				c8.2,0.6,7.6-1.9,13.2-4.3c1.5-0.7,2.7,0,3.7-1.1s1.1-3.2,2.1-4.3C146.2,115.5,118.9,96.5,98.7,95.8z M120.9,53.4
				c-10.1,1.5-16.3,4.7-20.1,7.4c-2.7,1.9-3.4,3.1-4,3.9c-0.6,0.8-1,2.5-0.7,4.3s1,3.7,2.6,4.8c12.4-0.9,34-1.7,38.2,8.7
				c0.2,1.5,0.6,2.3,0.6,2.7c4.1-1,1.1-0.7,7.2,0.3c1.4,0.2,4.8-0.6,7.1-1.1c1-0.2,1.6-1.2,1.6-1.2s-0.2-1-0.1-1.5
				c0,0,2.1,0.2,3-0.5c5.7-0.9,2.7-3.6,5.4-6.7C159.9,55,139.9,50.5,120.9,53.4z M43.9,89c2.2-0.6,6-0.9,8-1.9
				c3.2-1.6,14-9.2,10.6-15.4c-1.1-13-16.8-2-23.5-6.6c-6.8-0.9-14.4-13.7-16.4-19.2c-0.8-2.2-0.5-1.4-1.6-3.1
				c0-0.2-0.7,0.6-0.7,0.4c-2,2.3-1.6,4.3-1.9,10c-0.9-0.1-1.8-0.1-2.7-0.2c-0.2,2-0.4,3.2-1.3,4.2c-0.2,0.3-0.4,0.7-0.6,1
				c-1.7-0.6-0.8,0.2-1.5-1.2c-6.2,0.3-5.8,6.6-8.6,10.2C3.7,78.9,26.9,93.4,43.9,89z M89,25.3c0.5-4.4-0.1-10.9,3.4-13.9
				c1-4.7,8.5-3.6,7.3-6.6c-0.7-1.9-4.2-1-5.6-0.6C93,4.3,82.8,7.6,78.9,8c-1.7-0.5-3.3-0.9-5-1.4c-6.4,0.9-10.1,5.9-13.6,10
				c-3,3.4-7,11.7-3.8,16.7c-0.2,1.1-0.4,2.2-0.5,3.3l7.3,10.6c2.5,1.8,2.8,3.1,5.5,4.9c0.6,0.8,1.1,1.7,1.7,2.5
				c2.2,1.4,8.7,1.5,9.8,0.5c10.5,1,9.3-20.2,12.7-24.7C92.5,28.4,90.7,26.3,89,25.3z"/>
		</g>
		<g>
			<path class="st1" d="M745.2,136.1h-10.9c0,0.9,0,2.1,0,3.9v17.8c0,1.9,0,3.4,0,3.9h9.3c6.9,0,13.6-3,13.6-13.1
				C757.1,140.6,752.3,136.1,745.2,136.1z M743.1,156.9H741v-16.1h2.1c3.9,0,7.1,2,7.1,7.9C750.2,155.6,747,156.9,743.1,156.9z
				 M719.1,135.5c-3.5,0-11.7,1.3-11.7,13.6c0,8.2,4.1,13.1,11.4,13.1c5.7,0,9.2-1.4,11.7-3.3c-0.3-0.4-2.4-4.2-2.7-4.6
				c-1.5,1.2-4,2.3-7.2,2.3s-5.7-2.2-5.7-5.6v-0.3c0,0,6-0.1,8.1-0.1c3.5,0,4.9,0,7.6-0.1c0-0.5,0-1.9,0-1.9
				C730.5,139.8,726.8,135.5,719.1,135.5z M723.2,146.2c0,0-2.6,0.1-4.1,0.1s-4.4-0.1-4.4-0.1v-0.4c0.1-1.5,0.6-4.9,4.4-4.9
				c3.8,0,4.1,3.2,4.1,5V146.2z M760.5,140v17.8c0,1.9,0,3.9,0,3.9h6.9c0,0-0.1-2.1-0.1-3.9v-7h4.6c1.2,0,3.8,0.1,3.8,0.1v-4.7
				c0,0-3,0-3.8,0h-4.6V141h4.6c1.2,0,4.9,0.1,4.9,0.1v-5h-16.3C760.4,136.1,760.5,138.1,760.5,140z M835.8,135.8
				c-6.1,0-9.7,4.5-9.7,13.4c0,8,3.6,12.9,9.4,12.9c6.1,0,9.7-4.5,9.7-13.4C845.2,140.7,841.6,135.8,835.8,135.8z M835.6,159.4
				c-4.3,0-6-5-6-10.2c0-7.9,2.9-10.7,6.3-10.7c4.3,0,6,5,6,10.2C841.8,156.6,838.9,159.4,835.6,159.4z M862,152.8
				c0,4-1.8,6.6-4.8,6.6c-3.1,0-4.8-2.6-4.8-6.6v-16.7h-3.2v16.2c0,2.5,0.1,3.9,1,5.7c1.1,2.1,3.3,4,7,4s6-1.8,7-4
				c0.9-1.8,1-3.2,1-5.7v-16.2H862V152.8z M796.6,150.5h4.3v8.1c-0.8,0.4-2.2,0.7-3.2,0.7c-5.6,0-8.3-4.4-8.3-11
				c0-6.3,3.8-9.6,8-9.6c1.9,0,4.1,0.6,6,1.6V137c-1.8-0.8-3.8-1.1-6-1.1c-6.7,0-11.4,5-11.4,13.1c0,7,3.4,13.2,11.6,13.2
				c2.3,0,4.9-0.8,6.4-1.3v-13.1h-7.4L796.6,150.5L796.6,150.5z M881.9,138.1c-1.4-1.3-3-2-5.6-2h-6.2v25.7h3.2V151h2.2
				c5.5,0,8.4-2.7,8.4-7.7C883.9,141.1,883.2,139.3,881.9,138.1z M875.1,148.4h-1.8v-9.7h1.8c3.3,0,5.3,1.4,5.3,4.9
				C880.5,146.5,879.1,148.4,875.1,148.4z M817.7,149L817.7,149c3.8-0.9,5.1-3.5,5.1-6.2c0-1.9-0.6-3.6-1.9-4.9
				c-1.2-1.1-2.7-1.8-5.4-1.8h-6.6v25.7h3.2v-11.6h1.5c2.4,0,3.4,0.8,4.1,2.9l2.9,8.7h3.5l-3.6-10.3C820,150,819.3,149.3,817.7,149z
				 M814.6,147.5h-2.5v-8.8h2.6c2.8,0,4.7,1.4,4.7,4.2C819.4,145.2,818.1,147.5,814.6,147.5z"/>
		</g>
		<g>
			<path class="st1" d="M448.3,115.4h13.4V40.2h-13.4V115.4z M424.5,115.4h13.4V40.2h-13.4V115.4z M306,90.9v-6.6
				c0-15.2-6.5-21.8-22.3-21.8c-5.7,0-12.7,1.5-17.9,3.9l0.4,11.5c4.5-3.4,10.2-5.6,15.9-5.6c7.9,0,11.6,2.8,11.6,11.1h-7.4
				c-5.6,0-12.2,0.5-17.3,3c-5.1,2.5-8.8,7-8.8,14.7c0,9.8,8.9,15.3,18,15.3c6.1,0,12.8-3.2,15.9-8.9h0.2c0.1,1.6,0.1,5,0.6,7.7
				h11.8c-0.3-4-0.5-7.6-0.6-11.5C306.1,100,306,96.1,306,90.9z M290.9,102.1c-2.1,2.8-5.3,4.6-9.4,4.6c-4.8,0-8.5-1.9-8.5-6.3
				c0-7.9,8.9-8.9,14.9-8.9h5.8C293.7,95.5,293.1,99.2,290.9,102.1z M219.2,90.9v-6.6c0-15.2-6.5-21.8-22.3-21.8
				c-5.7,0-12.7,1.5-17.9,3.9l0.4,11.5c4.5-3.4,10.2-5.6,15.9-5.6c7.9,0,11.6,2.8,11.6,11.1h-7.4c-5.6,0-12.2,0.5-17.3,3
				s-8.8,7-8.8,14.7c0,9.8,8.9,15.3,18,15.3c6.1,0,12.8-3.2,15.9-8.9h0.2c0.1,1.6,0.1,5,0.6,7.7H220c-0.3-4-0.5-7.6-0.6-11.5
				C219.3,100,219.2,96.1,219.2,90.9z M204.2,102.1c-2.1,2.8-5.3,4.6-9.4,4.6c-4.8,0-8.5-1.9-8.5-6.3c0-7.9,8.9-8.9,14.9-8.9h5.8
				C207,95.5,206.4,99.2,204.2,102.1z M344.3,62.5c-7,0-11.7,2.9-15.4,7.8h-0.2V40.1h-13.4v75.2h13V109h0.2
				c3.9,5.5,10.1,7.5,15.8,7.5c15.8,0,21.7-13,21.7-27.2C365.9,75.2,360.1,62.5,344.3,62.5z M340.5,106.1c-8.9,0-11.8-9.4-11.8-16.7
				c0-7.2,3.4-16.4,12-16.4c8.7,0,11.1,9.5,11.1,16.4C351.9,96.5,349.4,106.1,340.5,106.1z M393.1,62.5c-16,0-24,12.3-24,27.3
				c0,16.9,9.9,26.8,27,26.8c7.2,0,12.8-1.4,17.7-4.1v-10.9c-5,2.8-10.6,5.2-17.1,5.2c-8.3,0-14.1-4.7-14.7-13h35.7
				C417.6,75.7,412.2,62.5,393.1,62.5z M382,84.5c0.6-6.9,4.4-12.1,11.9-12.1s10.5,5.6,10.9,12.1H382z M240.9,75.5h-0.2V63.8h-11.9
				v51.6h13.4V96.5c0-7.4,0-21.1,10.9-21.1c2.4,0,4.8,0.4,6,1.1V63c-1.4-0.4-2.8-0.4-4.1-0.4C247,62.5,241.5,70.6,240.9,75.5z
				 M734.5,50.6h6.3v-8.4h-6.3V50.6z M772.7,63c-16.5,0-23.9,12.8-23.9,26.8c0,13.9,7.3,26.8,23.9,26.8c16.5,0,23.9-12.8,23.9-26.8
				C796.6,75.9,789.3,63,772.7,63z M772.7,111.1c-11,0-16.9-9.5-16.9-21.4c0-11.8,5.9-21.4,16.9-21.4s16.9,9.5,16.9,21.4
				C789.7,101.6,783.8,111.1,772.7,111.1z M858.7,77c0-6.5,4.5-8.5,11-8.5c3.5,0,8,0.9,11.3,2.4l0.6-5.5c-4.5-1.7-9.9-2.3-12.6-2.3
				c-8.4,0-16.6,3.8-16.6,13.9c0,14.8,24.6,12.9,24.6,25.1c0,5.8-5.3,9.1-11.3,9.1c-4.9,0-9.5-1.3-13.3-3.2l-0.6,6.2
				c4.5,1.8,9.4,2.4,14.3,2.4c7.7,0,17.8-3.7,17.8-14.5C883.9,85.3,858.7,86.5,858.7,77z M827,63c-10.6,0-14.4,5.7-16.5,10.3h-0.2
				v-9.1h-6.1c0.4,4.1,0.4,8.1,0.4,12v39.1h6.3V87c0-8.5,3.6-18.6,15.1-18.6c8.7,0,12.1,6.2,12.1,15.8v31.1h6.3V82.6
				C844.4,71.4,839.6,63,827,63z M734.5,115.4h6.3V64.3h-6.3V115.4z M693.3,64.2H687v28.3c0,8.5-3.6,18.6-15.1,18.6
				c-8.7,0-12.1-6.2-12.1-15.8V64.2h-6.3v32.7c0,11.2,4.8,19.6,17.4,19.6c10.6,0,14.4-5.7,16.5-10.3h0.2v9.1h6.1
				c-0.4-4.1-0.4-8.1-0.4-12L693.3,64.2L693.3,64.2z M603.4,63c-16.5,0-23.9,12.8-23.9,26.8c0,13.9,7.3,26.8,23.9,26.8
				c16.5,0,23.9-12.8,23.9-26.8C627.3,75.9,619.9,63,603.4,63z M603.4,111.1c-11,0-16.9-9.5-16.9-21.4c0-11.8,5.9-21.4,16.9-21.4
				s16.9,9.5,16.9,21.4C620.3,101.6,614.4,111.1,603.4,111.1z M551,77c0-6.5,4.5-8.5,11-8.5c3.5,0,8,0.9,11.3,2.4l0.6-5.5
				c-4.5-1.7-9.9-2.3-12.6-2.3c-8.4,0-16.6,3.8-16.6,13.9c0,14.8,24.6,12.9,24.6,25.1c0,5.8-5.3,9.1-11.3,9.1
				c-4.9,0-9.5-1.3-13.3-3.2l-0.6,6.2c4.5,1.8,9.4,2.4,14.3,2.4c7.7,0,17.8-3.7,17.8-14.5C576.1,85.3,551,86.5,551,77z M635.2,115.4
				h6.3V40.2h-6.3V115.4z M492.5,62.5c-16,0-24,12.3-24,27.3c0,16.9,9.9,26.8,27,26.8c7.2,0,12.8-1.4,17.7-4.1v-10.9
				c-5,2.8-10.6,5.2-17.1,5.2c-8.3,0-14.1-4.7-14.7-13h35.7C517.1,75.7,511.7,62.5,492.5,62.5z M481.4,84.5
				c0.6-6.9,4.4-12.1,11.9-12.1s10.5,5.6,10.9,12.1H481.4z M722.4,111.1c-5.1,0-6.8-3.8-6.8-8.4V69.6h11.6v-5.4h-11.6V49.7l-6.3,2.2
				v12.3h-10v5.4h10v29.9c0,9.3,0.4,17,11.6,17c3.1,0,6.2-0.8,7.7-1.4l-0.4-5.2C726.4,110.6,724.8,111.1,722.4,111.1z"/>
		</g>
	</g>
</g>
</svg>
